<svg width="354" height="154" viewBox="0 0 354 154" fill="none" xmlns="http://www.w3.org/2000/svg">
<path d="M80.5093 56.342V89.0593C80.5093 89.0593 109.656 91.5538 116.565 83.9871C123.473 76.4204 125.692 73.157 126.111 70.7398C126.53 68.3227 115.29 54.9758 102.797 56.342" fill="white"/>
<path d="M285.346 60.2969L272.489 105.736H298.01L285.407 59.9429" fill="white"/>
<path d="M42.3294 36.2248L61.4055 99.9059L64.1921 109.16L69.6219 127.673L72.4086 136.926L77.281 153.216H69.7599L64.8874 136.926H12.3937L7.52118 153.216H0L4.87249 136.926L7.65913 127.673L13.0889 109.16L15.8756 99.9059L34.9517 36.2248L38.5715 23.6357L42.3294 36.2248ZM15.1803 127.678H62.1063L56.6764 109.165H20.6101L15.1803 127.678ZM23.3912 99.9059H53.8843L38.566 48.8139L23.3857 99.9059H23.3912Z" fill="white"/>
<path d="M82.5344 49.9036H103.912C112.746 49.9036 120.3 53.0453 126.574 59.3343C132.843 65.6233 135.839 73.19 135.839 82.0511C135.839 87.1951 134.697 92.1954 132.275 96.7642C129.996 101.338 126.718 105.05 122.585 108.192L143.962 149.908H135.983L116.316 111.621C112.327 113.336 108.194 114.193 103.917 114.193H82.5399V149.908H75.416V49.9036H82.5399H82.5344ZM82.5344 85.6187H102.201C107.476 85.6187 112.178 84.0479 116.454 81.1882C120.731 78.1903 123.721 74.3295 125.432 69.6169C123.297 65.7616 120.3 62.7581 116.311 60.4738C112.465 58.1894 108.469 57.0444 103.912 57.0444H82.5344V85.6187ZM117.166 89.0481C112.603 91.4763 107.614 92.7651 102.201 92.7651H82.5344V107.052H103.912C110.754 107.052 116.598 104.48 121.443 99.6238C126.287 94.6236 128.71 88.9098 128.71 82.0511C128.71 80.9061 128.71 79.9105 128.566 78.9093C125.714 83.1961 121.867 86.4816 117.166 89.0536V89.0481Z" fill="white"/>
<path d="M174.913 54.0854L190.606 106.898L192.896 114.575L197.361 129.93L199.651 137.607L203.657 151.12H197.471L193.465 137.607H150.286L146.28 151.12H140.094L144.1 137.607L146.39 129.93L150.854 114.575L153.144 106.898L168.838 54.0854L171.817 43.6479L174.907 54.0854H174.913ZM152.576 129.924H191.175L186.705 114.569H157.04L152.576 129.924ZM159.335 106.898H184.421L171.823 64.5228L159.341 106.898H159.335Z" fill="white"/>
<path d="M205.941 45.4233L227.942 73.5054L249.943 45.4233H258.473L240.302 68.8039V128.314L258.595 151.695H249.943L227.942 123.613L206.063 151.695H197.41L215.581 128.619V68.6545L197.41 45.4289H205.941V45.4233ZM221.762 120.72L223.737 118.137L227.942 112.672L232.268 118.137L234.122 120.416V76.6969L232.268 78.9758L227.942 84.4407L223.616 78.9758L221.762 76.5476V120.726V120.72Z" fill="white"/>
<path d="M288.503 50.8496L304.196 105.736L306.486 113.712L310.95 129.67L313.24 137.646L317.247 151.684H311.061L307.055 137.646H263.876L259.869 151.684H253.684L257.69 137.646L259.98 129.67L264.444 113.712L266.734 105.736L282.427 50.8496L285.407 39.9973L288.497 50.8496H288.503ZM266.171 129.67H304.77L300.301 113.712H270.635L266.171 129.67ZM272.925 105.736H298.011L285.413 61.7019L272.931 105.736H272.925Z" fill="white"/>
<path d="M157.045 114.575L152.576 129.924H191.175L186.711 114.575" fill="white"/>
<path d="M38.5714 48.814L23.3911 99.906H53.8897" fill="white"/>
<path d="M345.946 2.54531L346.851 3.9779L341.112 8.11526C341.112 8.11526 326.661 -10.0106 301.614 7.91613L315.415 26.927L297.779 39.2838L315.768 27.4359L330.275 47.2874C330.275 47.2874 355.117 31.6672 342.233 9.89632L347.806 5.48239L348.965 6.69373L353.429 0.305158L345.946 2.55084V2.54531ZM317.125 24.8141C316.75 24.1116 305.162 8.09313 305.162 8.09313C305.162 8.09313 323.626 -4.82229 338.607 9.28788C338.607 9.28788 339.087 9.8576 338.293 10.2558C337.498 10.6541 318.163 24.98 318.163 24.98C318.163 24.98 317.501 25.511 317.125 24.8085V24.8141ZM331.296 44.1678C331.296 44.1678 320.1 28.6804 319.459 27.9613C318.819 27.2423 319.349 26.7002 319.349 26.7002L339.981 11.3621C350.477 29.7922 331.296 44.1623 331.296 44.1623V44.1678Z" fill="white"/>
</svg>
