<svg width="35" height="42" viewBox="0 0 35 42" fill="none" xmlns="http://www.w3.org/2000/svg">
<path d="M20 0.947266H24.95C25.31 2.73942 26.3 5.00029 28.0375 7.24362C29.7375 9.44183 31.9925 10.9733 35 10.9733V15.9863C30.6175 15.9863 27.325 13.946 25 11.4019V28.5189C25 30.9976 24.2669 33.4206 22.8934 35.4816C21.5199 37.5426 19.5676 39.1489 17.2835 40.0975C14.9995 41.046 12.4861 41.2942 10.0614 40.8106C7.63661 40.3271 5.40933 39.1334 3.66117 37.3807C1.91301 35.628 0.722505 33.3949 0.24019 30.9639C-0.242126 28.5328 0.00541605 26.0129 0.951511 23.7229C1.89761 21.4329 3.49976 19.4755 5.55538 18.0984C7.61099 16.7213 10.0277 15.9863 12.5 15.9863V20.9993C11.0166 20.9993 9.5666 21.4404 8.33323 22.2666C7.09986 23.0929 6.13857 24.2673 5.57091 25.6413C5.00325 27.0153 4.85473 28.5272 5.14412 29.9859C5.4335 31.4445 6.14781 32.7844 7.1967 33.836C8.2456 34.8876 9.58197 35.6038 11.0368 35.8939C12.4917 36.1841 13.9997 36.0352 15.3701 35.466C16.7406 34.8969 17.9119 33.9331 18.736 32.6965C19.5601 31.4599 20 30.0061 20 28.5189V0.947266Z" fill="white"/>
</svg>
