<svg width="1914" height="292" viewBox="0 0 1914 292" fill="none" xmlns="http://www.w3.org/2000/svg">
<g clip-path="url(#clip0_79_1470)">
<path d="M436.8 -0.046875H0V291.953H436.8V-0.046875Z" fill="#FFF4E7"/>
<path d="M72.8 0.0175781H0V73.0176H72.8V0.0175781Z" fill="#E8B100"/>
<path d="M72.7999 73.0176V0.0175781C52.6955 0.0175781 36.3999 16.3579 36.3999 36.5176C36.3999 56.6773 52.6955 73.0176 72.7999 73.0176Z" fill="#E94E1B"/>
<path d="M0 0.0175781V73.0176C20.1044 73.0176 36.4 56.6773 36.4 36.5176C36.4 16.3579 20.1044 0.0175781 0 0.0175781Z" fill="#BE1622"/>
<path d="M11.6479 14.623C19.4405 18.8103 24.7519 27.0506 24.7519 36.5172C24.7519 45.9838 19.4405 54.2299 11.6479 58.4114V14.623Z" fill="black"/>
<path d="M364 292.018H436.8V219.018H364V292.018Z" fill="#BE1622"/>
<path d="M400.4 292.018V219.018C380.296 219.018 364 235.358 364 255.518C364 275.677 380.296 292.018 400.4 292.018Z" fill="#232536"/>
<path d="M436.8 292.018V219.018C416.695 219.018 400.4 235.358 400.4 255.518C400.4 275.677 416.695 292.018 436.8 292.018Z" fill="#E94E1B"/>
<path d="M364 146.018H327.6V182.518H364V146.018Z" fill="#232536"/>
<path d="M327.6 182.518H291.2V219.018H327.6V182.518Z" fill="#232536"/>
<path d="M303.6 182.518C303.6 169.226 314.345 158.451 327.6 158.451V182.518H303.6Z" fill="#E94E1B"/>
<path d="M327.6 206.584V182.518H351.601C351.601 195.809 340.856 206.584 327.6 206.584Z" fill="#E94E1B"/>
<path d="M351.601 182.518H327.6V158.451C340.856 158.451 351.601 169.226 351.601 182.518Z" fill="#E8B100"/>
<path d="M303.6 182.518H327.6V206.584C314.345 206.584 303.6 195.809 303.6 182.518Z" fill="#E8B100"/>
<path d="M266.931 0.0175781V36.5176L291.2 18.2676L266.931 0.0175781Z" fill="#E8B100"/>
<path d="M242.668 0.0175781V36.5176L266.931 18.2676L242.668 0.0175781Z" fill="#E8B100"/>
<path d="M218.4 0.0175781V36.5176L242.669 18.2676L218.4 0.0175781Z" fill="#BE1622"/>
<path d="M242.669 73.0176V36.5176L218.4 54.7676L242.669 73.0176Z" fill="#E94E1B"/>
<path d="M266.931 73.0176V36.5176L242.668 54.7676L266.931 73.0176Z" fill="#E94E1B"/>
<path d="M291.2 73.0176V36.5176L266.931 54.7676L291.2 73.0176Z" fill="#BE1622"/>
<path d="M436.8 36.5176L400.4 0.0175781V36.5176H436.8Z" fill="#E8B100"/>
<path d="M418.6 54.7676L382.2 18.2676V54.7676H418.6Z" fill="#E94E1B"/>
<path d="M400.4 73.0176L364 36.5176V73.0176H400.4Z" fill="#BE1622"/>
<path d="M145.6 146.018H72.7998V219.018H145.6V146.018Z" fill="#BE1622"/>
<path d="M72.7998 182.518L109.2 219.018V182.518H72.7998Z" fill="#E8B100"/>
<path d="M91 164.268L127.4 200.768V164.268H91Z" fill="#E94E1B"/>
<path d="M109.2 146.018L145.6 182.518V146.018H109.2Z" fill="#E94E1B"/>
<path d="M364 219.018V146.018H436.8V182.518L400.4 219.018H364Z" fill="#E8B100"/>
<path d="M400.4 182.518L436.8 146.018H400.4V182.518Z" fill="#BE1622"/>
<path d="M364 182.518L400.4 146.018H364V182.518Z" fill="#BE1622"/>
<path d="M400.4 182.518L364 219.018H400.4V182.518Z" fill="#E94E1B"/>
<path d="M436.8 73.0176H364V146.018H436.8V73.0176Z" fill="#E94E1B"/>
<path d="M382.2 73.0176H436.8V91.2676L418.6 109.518L382.2 73.0176Z" fill="#E8B100"/>
<path d="M364 73.0176H436.8L400.4 109.518L364 73.0176Z" fill="#BE1622"/>
<path d="M364 91.2676V73.0176H418.6L382.2 109.518L364 91.2676Z" fill="#232536"/>
<path d="M364 73.0176H291.2V146.018H364V73.0176Z" fill="#BE1622"/>
<path d="M327.6 128.754C338.195 128.754 346.785 120.142 346.785 109.517C346.785 98.893 338.195 90.2803 327.6 90.2803C317.005 90.2803 308.416 98.893 308.416 109.517C308.416 120.142 317.005 128.754 327.6 128.754Z" fill="#E94E1B"/>
<path d="M364 146.018H291.2L327.6 109.518L364 146.018Z" fill="#E8B100"/>
<path d="M72.8 219.018H0V292.018H72.8V219.018Z" fill="#E94E1B"/>
<path d="M0 219.018H72.8C52.6955 238.5 20.1044 238.5 0 219.018Z" fill="#BE1622"/>
<path d="M0 233.629H72.8C52.6955 253.111 20.1044 253.111 0 233.629Z" fill="#E8B100"/>
<path d="M0 248.241H72.8C52.6955 267.723 20.1044 267.723 0 248.241Z" fill="#BE1622"/>
<path d="M0 262.853H72.8C52.6955 282.335 20.1044 282.335 0 262.853Z" fill="#E8B100"/>
<path d="M0 277.464H72.8C52.6955 296.946 20.1044 296.946 0 277.464Z" fill="#BE1622"/>
<path d="M218.4 292.018V256.3H255.58V219.018H291.2V292.018H218.4Z" fill="#E8B100"/>
<path d="M236.076 274.293H273.518V236.748H236.076V274.293Z" fill="#232536"/>
<path d="M254.8 274.287H273.518V255.517H254.8V274.287Z" fill="#E94E1B"/>
<path d="M218.4 219.018H291.2V146.018H218.4V219.018Z" fill="#E94E1B"/>
<path d="M218.138 200.768H273V164.268H218.138V200.768Z" fill="#E8B100"/>
<path d="M273 200.768C283.051 200.768 291.2 192.597 291.2 182.518C291.2 172.438 283.051 164.268 273 164.268C262.948 164.268 254.8 172.438 254.8 182.518C254.8 192.597 262.948 200.768 273 200.768Z" fill="#BE1622"/>
<path d="M261.25 189.704C265.194 186.133 265.504 180.033 261.943 176.078C258.382 172.123 252.298 171.812 248.354 175.383C244.411 178.954 244.1 185.055 247.661 189.009C251.222 192.964 257.306 193.275 261.25 189.704Z" fill="black"/>
<path d="M145.6 182.372V146.018H181.988C182 146.263 182 146.508 182 146.753C182 166.434 166.089 182.383 146.468 182.383C146.177 182.383 145.891 182.383 145.6 182.372Z" fill="#232536"/>
<path d="M171.476 218.574V171.971H218.126C218.138 172.286 218.138 172.596 218.138 172.911C218.138 198.14 197.742 218.591 172.583 218.591C172.216 218.591 171.843 218.586 171.476 218.58V218.574Z" fill="#BE1622"/>
<path d="M72.7996 146.018H145.6V73.0176L72.7996 73.0176L72.7996 146.018Z" fill="#E8B100"/>
<path d="M145.67 73.164V145.942H72.8231C72.7998 145.451 72.7998 144.961 72.7998 144.47C72.7998 105.074 104.651 73.1348 143.94 73.1348C144.517 73.1348 145.093 73.1464 145.67 73.1581V73.164Z" fill="#E94E1B"/>
<path d="M145.67 90.2978V145.947H89.9691C89.9517 145.573 89.9517 145.2 89.9517 144.826C89.9517 114.703 114.302 90.2803 144.348 90.2803C144.79 90.2803 145.233 90.2861 145.67 90.2978Z" fill="#E8B100"/>
<path d="M145.67 107.777V145.948H107.464C107.453 145.691 107.453 145.434 107.453 145.177C107.453 124.515 124.156 107.766 144.761 107.766C145.064 107.766 145.367 107.771 145.67 107.777Z" fill="#232536"/>
<path d="M72.7996 73.0176L145.6 73.0176V0.0175781L72.7996 0.0175781L72.7996 73.0176Z" fill="#BE1622"/>
<path d="M73.9297 21.5088C101.646 21.5088 124.109 44.0337 124.109 71.8262C124.109 72.235 124.109 72.6438 124.098 73.0526H108.012C108.012 72.7723 108.023 72.492 108.023 72.2117C108.023 53.1499 92.6131 37.6973 73.6036 37.6973C73.3648 37.6973 73.1319 37.6973 72.8931 37.7089V21.5263C73.2425 21.5088 73.5861 21.5088 73.9297 21.5088Z" fill="#E8B100"/>
<path d="M144.598 51.4677C116.882 51.4677 94.4185 28.9428 94.4185 1.15023C94.4185 0.741428 94.4185 0.332628 94.4301 -0.0761719H110.516C110.516 0.204148 110.504 0.484468 110.504 0.764788C110.504 19.8265 125.915 35.2792 144.924 35.2792C145.163 35.2792 145.396 35.2792 145.635 35.2675V51.4501C145.285 51.4677 144.942 51.4677 144.598 51.4677Z" fill="#E94E1B"/>
<path d="M218.4 219.018H145.6V292.018H218.4V219.018Z" fill="#BE1622"/>
<path d="M206.528 280.112C212.139 274.486 212.139 265.364 206.528 259.737C200.917 254.111 191.819 254.111 186.208 259.737C180.597 265.364 180.597 274.486 186.208 280.112C191.819 285.739 200.917 285.739 206.528 280.112Z" fill="#232536"/>
<path d="M176.228 281.456C182.589 276.7 183.901 267.673 179.157 261.294C174.414 254.915 165.412 253.6 159.05 258.357C152.689 263.113 151.377 272.14 156.121 278.519C160.864 284.897 169.866 286.213 176.228 281.456Z" fill="#E8B100"/>
<path d="M206.528 251.299C212.139 245.672 212.139 236.55 206.528 230.924C200.917 225.297 191.82 225.297 186.209 230.924C180.598 236.55 180.598 245.672 186.209 251.299C191.82 256.925 200.917 256.925 206.528 251.299Z" fill="#E94E1B"/>
<path d="M176.226 252.645C182.587 247.888 183.899 238.862 179.155 232.483C174.412 226.104 165.41 224.789 159.049 229.545C152.687 234.301 151.376 243.328 156.119 249.707C160.862 256.086 169.864 257.401 176.226 252.645Z" fill="#232536"/>
<path d="M127.417 292.018H145.6V273.785H127.417V292.018Z" fill="#E8B100"/>
<path d="M109.17 273.843H127.353V255.61H109.17V273.843Z" fill="#232536"/>
<path d="M109.17 237.372H127.353V219.14H109.17V237.372Z" fill="#232536"/>
<path d="M90.9884 255.604H109.171V237.372H90.9884V255.604Z" fill="#E8B100"/>
<path d="M127.359 255.604H145.542V237.372H127.359V255.604Z" fill="#E8B100"/>
<path d="M90.9884 292.075H109.171V273.843H90.9884V292.075Z" fill="#E8B100"/>
<path d="M72.7999 237.372H90.9824V219.14H72.7999V237.372Z" fill="#232536"/>
<path d="M72.7999 273.843H90.9824V255.61H72.7999V273.843Z" fill="#232536"/>
<path d="M218.4 0.0175781H145.6V73.0176H218.4V0.0175781Z" fill="#E8B100"/>
<path d="M159.706 14.1617C167.032 12.1995 174.854 12.5674 182 15.2713C186.688 17.0467 191.091 19.8265 194.871 23.6108C198.645 27.401 201.417 31.816 203.188 36.5172C205.884 43.6829 206.251 51.526 204.294 58.8728C196.968 60.835 189.146 60.4671 182 57.7632C177.312 55.9878 172.909 53.208 169.129 49.4236C165.355 45.6335 162.583 41.2184 160.812 36.5172C158.116 29.3516 157.749 21.5084 159.706 14.1617Z" fill="#E94E1B"/>
<path d="M160.812 36.5176C162.583 41.2188 165.355 45.6338 169.129 49.424C172.909 53.2083 177.312 55.9881 182 57.7635C174.854 60.4674 167.032 60.8353 159.706 58.8731C157.749 51.5264 158.116 43.6833 160.812 36.5176Z" fill="#232536"/>
<path d="M182 15.2713C189.146 12.5674 196.968 12.1995 204.294 14.1617C206.251 21.5084 205.884 29.3516 203.188 36.5172C201.417 31.816 198.645 27.401 194.871 23.6108C191.091 19.8265 186.688 17.0467 182 15.2713Z" fill="#232536"/>
<path d="M160.812 36.5174C162.583 31.8162 165.355 27.4012 169.129 23.611C172.909 19.8267 177.312 17.0468 182 15.2715C186.689 17.0468 191.091 19.8267 194.871 23.611C198.645 27.4012 201.417 31.8162 203.188 36.5174C201.417 41.2186 198.645 45.6336 194.871 49.4238C191.091 53.2081 186.689 55.988 182 57.7633C177.312 55.988 172.909 53.2081 169.129 49.4238C165.355 45.6336 162.583 41.2186 160.812 36.5174Z" fill="#BE1622"/>
<path d="M16.4349 218.591H56.3643L56.3643 162.498H16.4349L16.4349 218.591Z" fill="black"/>
<path d="M36.3996 190.542C25.3806 190.542 16.4349 181.572 16.4349 170.522V162.498H56.3643V170.522C56.3643 181.572 47.4186 190.542 36.3996 190.542Z" fill="#BE1622"/>
<path d="M364 219.018H291.2V292.018H364V219.018Z" fill="#E94E1B"/>
<path d="M327.6 292.018C347.703 292.018 364 275.676 364 255.518C364 235.359 347.703 219.018 327.6 219.018C307.497 219.018 291.2 235.359 291.2 255.518C291.2 275.676 307.497 292.018 327.6 292.018Z" fill="#E8B100"/>
<path d="M340.481 268.437C347.595 261.303 347.595 249.736 340.481 242.602C333.366 235.469 321.832 235.469 314.717 242.602C307.603 249.736 307.603 261.303 314.717 268.437C321.832 275.571 333.366 275.571 340.481 268.437Z" fill="#BE1622"/>
<path d="M218.4 146.018H291.2V73.0176L218.4 73.0176V146.018Z" fill="#E8B100"/>
<path d="M218.4 139.138V146.018C238.475 146.018 254.8 129.648 254.8 109.518C254.8 89.3871 238.475 73.0176 218.4 73.0176V79.8971C234.69 79.8971 247.939 93.1831 247.939 109.518C247.939 125.852 234.69 139.138 218.4 139.138Z" fill="black"/>
<path d="M218.4 125.777V132.656C231.125 132.656 241.475 122.278 241.475 109.518C241.475 96.7576 231.125 86.3799 218.4 86.3799V93.2594C227.34 93.2594 234.614 100.554 234.614 109.518C234.614 118.482 227.34 125.777 218.4 125.777Z" fill="black"/>
<path d="M218.4 113.062V119.942C224.131 119.942 228.79 115.264 228.79 109.523C228.79 103.782 224.125 99.1045 218.4 99.1045V105.984C220.351 105.984 221.935 107.572 221.935 109.529C221.935 111.485 220.351 113.074 218.4 113.074V113.062Z" fill="black"/>
<path d="M291.2 146.018V73.0176C271.095 73.0176 254.8 89.3579 254.8 109.518C254.8 129.677 271.095 146.018 291.2 146.018Z" fill="#E94E1B"/>
<path d="M364 0.0175781H291.2V73.0176H364V0.0175781Z" fill="#E94E1B"/>
<path d="M327.6 0.0175781V73.0176C347.705 73.0176 364 56.6773 364 36.5176C364 16.3579 347.705 0.0175781 327.6 0.0175781Z" fill="#BE1622"/>
<path d="M327.6 73.0176L291.2 36.5176L327.6 0.0175781V73.0176Z" fill="#E8B100"/>
<path d="M72.8 73.0176H0V146.018H72.8V73.0176Z" fill="#BE1622"/>
<path d="M36.4 135.091H10.8967V109.517C10.8967 95.4022 22.3234 83.9441 36.4 83.9441C50.4766 83.9441 61.9033 95.4022 61.9033 109.517C61.9033 123.633 50.4766 135.091 36.4 135.091Z" fill="black"/>
<path d="M44.6087 120.399C50.6072 115.857 51.7977 107.298 47.2676 101.283C42.7375 95.2679 34.2023 94.0742 28.2037 98.6168C22.2051 103.159 21.0147 111.718 25.5448 117.733C30.0749 123.748 38.6101 124.942 44.6087 120.399Z" fill="#E94E1B"/>
<path d="M218.4 73.0176H145.6V146.018H218.4V73.0176Z" fill="#E94E1B"/>
<path d="M145.6 109.518H218.4C218.4 89.3579 202.105 73.0176 182 73.0176C161.896 73.0176 145.6 89.3579 145.6 109.518Z" fill="#E8B100"/>
<path d="M182 146.018V109.518H145.6C145.6 129.677 161.896 146.018 182 146.018Z" fill="#BE1622"/>
<path d="M192.236 111.272C193.204 105.601 189.403 100.216 183.747 99.2459C178.091 98.2755 172.721 102.086 171.753 107.758C170.786 113.43 174.586 118.814 180.242 119.785C185.898 120.755 191.268 116.944 192.236 111.272Z" fill="black"/>
</g>
<g clip-path="url(#clip1_79_1470)">
<rect width="436.8" height="292" transform="translate(436.8)" fill="black" fill-opacity="0.5"/>
<path d="M873.6 -0.046875H436.8V291.953H873.6V-0.046875Z" fill="#FFF4E7"/>
<path d="M509.6 0.0175781H436.8V73.0176H509.6V0.0175781Z" fill="#E8B100"/>
<path d="M509.6 73.0176V0.0175781C489.495 0.0175781 473.2 16.3579 473.2 36.5176C473.2 56.6773 489.495 73.0176 509.6 73.0176Z" fill="#E94E1B"/>
<path d="M436.8 0.0175781V73.0176C456.904 73.0176 473.2 56.6773 473.2 36.5176C473.2 16.3579 456.904 0.0175781 436.8 0.0175781Z" fill="#BE1622"/>
<path d="M448.448 14.623C456.24 18.8103 461.552 27.0506 461.552 36.5172C461.552 45.9838 456.24 54.2299 448.448 58.4114V14.623Z" fill="black"/>
<path d="M800.8 292.018H873.6V219.018H800.8V292.018Z" fill="#BE1622"/>
<path d="M837.2 292.018V219.018C817.095 219.018 800.8 235.358 800.8 255.518C800.8 275.677 817.095 292.018 837.2 292.018Z" fill="#232536"/>
<path d="M873.6 292.018V219.018C853.495 219.018 837.2 235.358 837.2 255.518C837.2 275.677 853.495 292.018 873.6 292.018Z" fill="#E94E1B"/>
<path d="M800.8 146.018H764.4V182.518H800.8V146.018Z" fill="#232536"/>
<path d="M764.4 182.518H728V219.018H764.4V182.518Z" fill="#232536"/>
<path d="M740.399 182.518C740.399 169.226 751.145 158.451 764.4 158.451V182.518H740.399Z" fill="#E94E1B"/>
<path d="M764.4 206.584V182.518H788.401C788.401 195.809 777.655 206.584 764.4 206.584Z" fill="#E94E1B"/>
<path d="M788.401 182.518H764.4V158.451C777.655 158.451 788.401 169.226 788.401 182.518Z" fill="#E8B100"/>
<path d="M740.399 182.518H764.4V206.584C751.145 206.584 740.399 195.809 740.399 182.518Z" fill="#E8B100"/>
<path d="M703.731 0.0175781V36.5176L728 18.2676L703.731 0.0175781Z" fill="#E8B100"/>
<path d="M679.468 0.0175781V36.5176L703.731 18.2676L679.468 0.0175781Z" fill="#E8B100"/>
<path d="M655.2 0.0175781V36.5176L679.468 18.2676L655.2 0.0175781Z" fill="#BE1622"/>
<path d="M679.468 73.0176V36.5176L655.2 54.7676L679.468 73.0176Z" fill="#E94E1B"/>
<path d="M703.731 73.0176V36.5176L679.468 54.7676L703.731 73.0176Z" fill="#E94E1B"/>
<path d="M728 73.0176V36.5176L703.731 54.7676L728 73.0176Z" fill="#BE1622"/>
<path d="M873.6 36.5176L837.2 0.0175781V36.5176H873.6Z" fill="#E8B100"/>
<path d="M855.4 54.7676L819 18.2676V54.7676H855.4Z" fill="#E94E1B"/>
<path d="M837.2 73.0176L800.8 36.5176V73.0176H837.2Z" fill="#BE1622"/>
<path d="M582.4 146.018H509.6V219.018H582.4V146.018Z" fill="#BE1622"/>
<path d="M509.6 182.518L546 219.018V182.518H509.6Z" fill="#E8B100"/>
<path d="M527.8 164.268L564.2 200.768V164.268H527.8Z" fill="#E94E1B"/>
<path d="M546 146.018L582.4 182.518V146.018H546Z" fill="#E94E1B"/>
<path d="M800.8 219.018V146.018H873.6V182.518L837.2 219.018H800.8Z" fill="#E8B100"/>
<path d="M837.2 182.518L873.6 146.018H837.2V182.518Z" fill="#BE1622"/>
<path d="M800.8 182.518L837.2 146.018H800.8V182.518Z" fill="#BE1622"/>
<path d="M837.2 182.518L800.8 219.018H837.2V182.518Z" fill="#E94E1B"/>
<path d="M873.6 73.0176H800.8V146.018H873.6V73.0176Z" fill="#E94E1B"/>
<path d="M819 73.0176H873.6V91.2676L855.4 109.518L819 73.0176Z" fill="#E8B100"/>
<path d="M800.8 73.0176H873.6L837.2 109.518L800.8 73.0176Z" fill="#BE1622"/>
<path d="M800.8 91.2676V73.0176H855.4L819 109.518L800.8 91.2676Z" fill="#232536"/>
<path d="M800.8 73.0176H728V146.018H800.8V73.0176Z" fill="#BE1622"/>
<path d="M764.4 128.754C774.995 128.754 783.584 120.142 783.584 109.517C783.584 98.893 774.995 90.2803 764.4 90.2803C753.805 90.2803 745.216 98.893 745.216 109.517C745.216 120.142 753.805 128.754 764.4 128.754Z" fill="#E94E1B"/>
<path d="M800.8 146.018H728L764.4 109.518L800.8 146.018Z" fill="#E8B100"/>
<path d="M509.6 219.018H436.8V292.018H509.6V219.018Z" fill="#E94E1B"/>
<path d="M436.8 219.018H509.6C489.495 238.5 456.904 238.5 436.8 219.018Z" fill="#BE1622"/>
<path d="M436.8 233.629H509.6C489.495 253.111 456.904 253.111 436.8 233.629Z" fill="#E8B100"/>
<path d="M436.8 248.241H509.6C489.495 267.723 456.904 267.723 436.8 248.241Z" fill="#BE1622"/>
<path d="M436.8 262.853H509.6C489.495 282.335 456.904 282.335 436.8 262.853Z" fill="#E8B100"/>
<path d="M436.8 277.464H509.6C489.495 296.946 456.904 296.946 436.8 277.464Z" fill="#BE1622"/>
<path d="M655.2 292.018V256.3H692.38V219.018H728V292.018H655.2Z" fill="#E8B100"/>
<path d="M672.875 274.293H710.318V236.748H672.875V274.293Z" fill="#232536"/>
<path d="M691.6 274.287H710.318V255.517H691.6V274.287Z" fill="#E94E1B"/>
<path d="M655.2 219.018H728V146.018H655.2V219.018Z" fill="#E94E1B"/>
<path d="M654.938 200.768H709.8V164.268H654.938V200.768Z" fill="#E8B100"/>
<path d="M709.8 200.768C719.851 200.768 728 192.597 728 182.518C728 172.438 719.851 164.268 709.8 164.268C699.748 164.268 691.6 172.438 691.6 182.518C691.6 192.597 699.748 200.768 709.8 200.768Z" fill="#BE1622"/>
<path d="M698.05 189.704C701.994 186.133 702.304 180.033 698.743 176.078C695.182 172.123 689.098 171.812 685.154 175.383C681.21 178.954 680.9 185.055 684.461 189.009C688.022 192.964 694.106 193.275 698.05 189.704Z" fill="black"/>
<path d="M582.4 182.372V146.018H618.788C618.8 146.263 618.8 146.508 618.8 146.753C618.8 166.434 602.889 182.383 583.268 182.383C582.976 182.383 582.691 182.383 582.4 182.372Z" fill="#232536"/>
<path d="M608.276 218.574V171.971H654.926C654.938 172.286 654.938 172.596 654.938 172.911C654.938 198.14 634.542 218.591 609.382 218.591C609.016 218.591 608.643 218.586 608.276 218.58V218.574Z" fill="#BE1622"/>
<path d="M509.599 146.018H582.399V73.0176L509.599 73.0176V146.018Z" fill="#E8B100"/>
<path d="M582.469 73.164V145.942H509.623C509.6 145.451 509.6 144.961 509.6 144.47C509.6 105.074 541.451 73.1348 580.74 73.1348C581.316 73.1348 581.893 73.1464 582.469 73.1581V73.164Z" fill="#E94E1B"/>
<path d="M582.47 90.2978V145.947H526.769C526.751 145.573 526.751 145.2 526.751 144.826C526.751 114.703 551.102 90.2803 581.148 90.2803C581.59 90.2803 582.033 90.2861 582.47 90.2978Z" fill="#E8B100"/>
<path d="M582.47 107.777V145.948H544.264C544.252 145.691 544.252 145.434 544.252 145.177C544.252 124.515 560.956 107.766 581.561 107.766C581.864 107.766 582.167 107.771 582.47 107.777Z" fill="#232536"/>
<path d="M509.599 73.0176L582.399 73.0176V0.0175781L509.599 0.0175781V73.0176Z" fill="#BE1622"/>
<path d="M510.73 21.5088C538.446 21.5088 560.909 44.0337 560.909 71.8262C560.909 72.235 560.909 72.6438 560.897 73.0526H544.812C544.812 72.7723 544.823 72.492 544.823 72.2117C544.823 53.1499 529.413 37.6973 510.403 37.6973C510.165 37.6973 509.932 37.6973 509.693 37.7089V21.5263C510.042 21.5088 510.386 21.5088 510.73 21.5088Z" fill="#E8B100"/>
<path d="M581.398 51.4677C553.681 51.4677 531.218 28.9428 531.218 1.15023C531.218 0.741428 531.218 0.332628 531.23 -0.0761719H547.316C547.316 0.204148 547.304 0.484468 547.304 0.764788C547.304 19.8265 562.714 35.2792 581.724 35.2792C581.963 35.2792 582.196 35.2792 582.435 35.2675V51.4501C582.085 51.4677 581.741 51.4677 581.398 51.4677Z" fill="#E94E1B"/>
<path d="M655.2 219.018H582.4V292.018H655.2V219.018Z" fill="#BE1622"/>
<path d="M643.327 280.112C648.938 274.486 648.938 265.364 643.327 259.737C637.716 254.111 628.619 254.111 623.008 259.737C617.397 265.364 617.397 274.486 623.008 280.112C628.619 285.739 637.716 285.739 643.327 280.112Z" fill="#232536"/>
<path d="M613.027 281.456C619.389 276.7 620.7 267.673 615.957 261.294C611.214 254.915 602.212 253.6 595.85 258.357C589.489 263.113 588.177 272.14 592.921 278.519C597.664 284.897 606.666 286.213 613.027 281.456Z" fill="#E8B100"/>
<path d="M643.328 251.299C648.939 245.672 648.939 236.55 643.328 230.924C637.717 225.297 628.62 225.297 623.009 230.924C617.398 236.55 617.398 245.672 623.009 251.299C628.62 256.925 637.717 256.925 643.328 251.299Z" fill="#E94E1B"/>
<path d="M613.025 252.645C619.387 247.888 620.699 238.862 615.955 232.483C611.212 226.104 602.21 224.789 595.848 229.545C589.487 234.301 588.175 243.328 592.919 249.707C597.662 256.086 606.664 257.401 613.025 252.645Z" fill="#232536"/>
<path d="M564.217 292.018H582.399V273.785H564.217V292.018Z" fill="#E8B100"/>
<path d="M545.97 273.843H564.153V255.61H545.97V273.843Z" fill="#232536"/>
<path d="M545.97 237.372H564.153V219.14H545.97V237.372Z" fill="#232536"/>
<path d="M527.788 255.604H545.971V237.372H527.788V255.604Z" fill="#E8B100"/>
<path d="M564.159 255.604H582.341V237.372H564.159V255.604Z" fill="#E8B100"/>
<path d="M527.788 292.075H545.971V273.843H527.788V292.075Z" fill="#E8B100"/>
<path d="M509.6 237.372H527.782V219.14H509.6V237.372Z" fill="#232536"/>
<path d="M509.6 273.843H527.782V255.61H509.6V273.843Z" fill="#232536"/>
<path d="M655.2 0.0175781H582.4V73.0176H655.2V0.0175781Z" fill="#E8B100"/>
<path d="M596.506 14.1617C603.832 12.1995 611.654 12.5674 618.8 15.2713C623.488 17.0467 627.891 19.8265 631.671 23.6108C635.445 27.401 638.217 31.816 639.987 36.5172C642.684 43.6829 643.051 51.526 641.094 58.8728C633.767 60.835 625.946 60.4671 618.8 57.7632C614.111 55.9878 609.709 53.208 605.929 49.4236C602.155 45.6335 599.383 41.2184 597.612 36.5172C594.916 29.3516 594.549 21.5084 596.506 14.1617Z" fill="#E94E1B"/>
<path d="M597.612 36.5176C599.383 41.2188 602.155 45.6338 605.929 49.424C609.709 53.2083 614.111 55.9881 618.8 57.7635C611.654 60.4674 603.832 60.8353 596.506 58.8731C594.549 51.5264 594.916 43.6833 597.612 36.5176Z" fill="#232536"/>
<path d="M618.8 15.2713C625.946 12.5674 633.767 12.1995 641.094 14.1617C643.051 21.5084 642.684 29.3516 639.988 36.5172C638.217 31.816 635.445 27.401 631.671 23.6108C627.891 19.8265 623.488 17.0467 618.8 15.2713Z" fill="#232536"/>
<path d="M597.612 36.5174C599.383 31.8162 602.155 27.4012 605.929 23.611C609.709 19.8267 614.112 17.0468 618.8 15.2715C623.488 17.0468 627.891 19.8267 631.671 23.611C635.445 27.4012 638.217 31.8162 639.988 36.5174C638.217 41.2186 635.445 45.6336 631.671 49.4238C627.891 53.2081 623.488 55.988 618.8 57.7633C614.112 55.988 609.709 53.2081 605.929 49.4238C602.155 45.6336 599.383 41.2186 597.612 36.5174Z" fill="#BE1622"/>
<path d="M453.235 218.591H493.165V162.498H453.235V218.591Z" fill="black"/>
<path d="M473.2 190.541C462.181 190.541 453.235 181.571 453.235 170.521V162.497H493.165V170.521C493.165 181.571 484.219 190.541 473.2 190.541Z" fill="#BE1622"/>
<path d="M800.8 219.018H728V292.018H800.8V219.018Z" fill="#E94E1B"/>
<path d="M764.4 292.018C784.503 292.018 800.8 275.676 800.8 255.518C800.8 235.359 784.503 219.018 764.4 219.018C744.297 219.018 728 235.359 728 255.518C728 275.676 744.297 292.018 764.4 292.018Z" fill="#E8B100"/>
<path d="M777.28 268.437C784.395 261.303 784.395 249.736 777.28 242.602C770.166 235.469 758.631 235.469 751.517 242.602C744.403 249.736 744.403 261.303 751.517 268.437C758.631 275.571 770.166 275.571 777.28 268.437Z" fill="#BE1622"/>
<path d="M655.2 146.018H728V73.0176L655.2 73.0176V146.018Z" fill="#E8B100"/>
<path d="M655.2 139.138V146.018C675.275 146.018 691.6 129.648 691.6 109.518C691.6 89.3871 675.275 73.0176 655.2 73.0176V79.8971C671.489 79.8971 684.739 93.1831 684.739 109.518C684.739 125.852 671.489 139.138 655.2 139.138Z" fill="black"/>
<path d="M655.2 125.777V132.656C667.925 132.656 678.274 122.278 678.274 109.518C678.274 96.7576 667.925 86.3799 655.2 86.3799V93.2594C664.14 93.2594 671.414 100.554 671.414 109.518C671.414 118.482 664.14 125.777 655.2 125.777Z" fill="black"/>
<path d="M655.2 113.062V119.942C660.931 119.942 665.59 115.264 665.59 109.523C665.59 103.782 660.925 99.1045 655.2 99.1045V105.984C657.151 105.984 658.735 107.572 658.735 109.529C658.735 111.485 657.151 113.074 655.2 113.074V113.062Z" fill="black"/>
<path d="M728 146.018V73.0176C707.895 73.0176 691.6 89.3579 691.6 109.518C691.6 129.677 707.895 146.018 728 146.018Z" fill="#E94E1B"/>
<path d="M800.8 0.0175781H728V73.0176H800.8V0.0175781Z" fill="#E94E1B"/>
<path d="M764.4 0.0175781V73.0176C784.504 73.0176 800.8 56.6773 800.8 36.5176C800.8 16.3579 784.504 0.0175781 764.4 0.0175781Z" fill="#BE1622"/>
<path d="M764.4 73.0176L728 36.5176L764.4 0.0175781V73.0176Z" fill="#E8B100"/>
<path d="M509.6 73.0176H436.8V146.018H509.6V73.0176Z" fill="#BE1622"/>
<path d="M473.2 135.091H447.697V109.517C447.697 95.4022 459.123 83.9441 473.2 83.9441C487.276 83.9441 498.703 95.4022 498.703 109.517C498.703 123.633 487.276 135.091 473.2 135.091Z" fill="black"/>
<path d="M481.408 120.399C487.407 115.857 488.597 107.298 484.067 101.283C479.537 95.2679 471.002 94.0742 465.003 98.6168C459.005 103.159 457.814 111.718 462.345 117.733C466.875 123.748 475.41 124.942 481.408 120.399Z" fill="#E94E1B"/>
<path d="M655.2 73.0176H582.4V146.018H655.2V73.0176Z" fill="#E94E1B"/>
<path d="M582.4 109.518H655.2C655.2 89.3579 638.904 73.0176 618.8 73.0176C598.695 73.0176 582.4 89.3579 582.4 109.518Z" fill="#E8B100"/>
<path d="M618.8 146.018V109.518H582.4C582.4 129.677 598.695 146.018 618.8 146.018Z" fill="#BE1622"/>
<path d="M629.036 111.272C630.003 105.601 626.203 100.216 620.547 99.2459C614.891 98.2755 609.521 102.086 608.553 107.758C607.585 113.43 611.386 118.814 617.042 119.785C622.698 120.755 628.068 116.944 629.036 111.272Z" fill="black"/>
</g>
<g clip-path="url(#clip2_79_1470)">
<rect width="436.8" height="292" transform="translate(873.6)" fill="black" fill-opacity="0.5"/>
<path d="M1310.4 -0.046875H873.6V291.953H1310.4V-0.046875Z" fill="#FFF4E7"/>
<path d="M946.4 0.0175781H873.6V73.0176H946.4V0.0175781Z" fill="#E8B100"/>
<path d="M946.4 73.0176V0.0175781C926.296 0.0175781 910 16.3579 910 36.5176C910 56.6773 926.296 73.0176 946.4 73.0176Z" fill="#E94E1B"/>
<path d="M873.6 0.0175781V73.0176C893.705 73.0176 910 56.6773 910 36.5176C910 16.3579 893.705 0.0175781 873.6 0.0175781Z" fill="#BE1622"/>
<path d="M885.248 14.623C893.041 18.8103 898.352 27.0506 898.352 36.5172C898.352 45.9838 893.041 54.2299 885.248 58.4114V14.623Z" fill="black"/>
<path d="M1237.6 292.018H1310.4V219.018H1237.6V292.018Z" fill="#BE1622"/>
<path d="M1274 292.018V219.018C1253.9 219.018 1237.6 235.358 1237.6 255.518C1237.6 275.677 1253.9 292.018 1274 292.018Z" fill="#232536"/>
<path d="M1310.4 292.018V219.018C1290.3 219.018 1274 235.358 1274 255.518C1274 275.677 1290.3 292.018 1310.4 292.018Z" fill="#E94E1B"/>
<path d="M1237.6 146.018H1201.2V182.518H1237.6V146.018Z" fill="#232536"/>
<path d="M1201.2 182.518H1164.8V219.018H1201.2V182.518Z" fill="#232536"/>
<path d="M1177.2 182.518C1177.2 169.226 1187.94 158.451 1201.2 158.451V182.518H1177.2Z" fill="#E94E1B"/>
<path d="M1201.2 206.584V182.518H1225.2C1225.2 195.809 1214.46 206.584 1201.2 206.584Z" fill="#E94E1B"/>
<path d="M1225.2 182.518H1201.2V158.451C1214.46 158.451 1225.2 169.226 1225.2 182.518Z" fill="#E8B100"/>
<path d="M1177.2 182.518H1201.2V206.584C1187.94 206.584 1177.2 195.809 1177.2 182.518Z" fill="#E8B100"/>
<path d="M1140.53 0.0175781V36.5176L1164.8 18.2676L1140.53 0.0175781Z" fill="#E8B100"/>
<path d="M1116.27 0.0175781V36.5176L1140.53 18.2676L1116.27 0.0175781Z" fill="#E8B100"/>
<path d="M1092 0.0175781V36.5176L1116.27 18.2676L1092 0.0175781Z" fill="#BE1622"/>
<path d="M1116.27 73.0176V36.5176L1092 54.7676L1116.27 73.0176Z" fill="#E94E1B"/>
<path d="M1140.53 73.0176V36.5176L1116.27 54.7676L1140.53 73.0176Z" fill="#E94E1B"/>
<path d="M1164.8 73.0176V36.5176L1140.53 54.7676L1164.8 73.0176Z" fill="#BE1622"/>
<path d="M1310.4 36.5176L1274 0.0175781V36.5176H1310.4Z" fill="#E8B100"/>
<path d="M1292.2 54.7676L1255.8 18.2676V54.7676H1292.2Z" fill="#E94E1B"/>
<path d="M1274 73.0176L1237.6 36.5176V73.0176H1274Z" fill="#BE1622"/>
<path d="M1019.2 146.018H946.4V219.018H1019.2V146.018Z" fill="#BE1622"/>
<path d="M946.4 182.518L982.8 219.018V182.518H946.4Z" fill="#E8B100"/>
<path d="M964.6 164.268L1001 200.768V164.268H964.6Z" fill="#E94E1B"/>
<path d="M982.8 146.018L1019.2 182.518V146.018H982.8Z" fill="#E94E1B"/>
<path d="M1237.6 219.018V146.018H1310.4V182.518L1274 219.018H1237.6Z" fill="#E8B100"/>
<path d="M1274 182.518L1310.4 146.018H1274V182.518Z" fill="#BE1622"/>
<path d="M1237.6 182.518L1274 146.018H1237.6V182.518Z" fill="#BE1622"/>
<path d="M1274 182.518L1237.6 219.018H1274V182.518Z" fill="#E94E1B"/>
<path d="M1310.4 73.0176H1237.6V146.018H1310.4V73.0176Z" fill="#E94E1B"/>
<path d="M1255.8 73.0176H1310.4V91.2676L1292.2 109.518L1255.8 73.0176Z" fill="#E8B100"/>
<path d="M1237.6 73.0176H1310.4L1274 109.518L1237.6 73.0176Z" fill="#BE1622"/>
<path d="M1237.6 91.2676V73.0176H1292.2L1255.8 109.518L1237.6 91.2676Z" fill="#232536"/>
<path d="M1237.6 73.0176H1164.8V146.018H1237.6V73.0176Z" fill="#BE1622"/>
<path d="M1201.2 128.754C1211.8 128.754 1220.38 120.142 1220.38 109.517C1220.38 98.893 1211.8 90.2803 1201.2 90.2803C1190.61 90.2803 1182.02 98.893 1182.02 109.517C1182.02 120.142 1190.61 128.754 1201.2 128.754Z" fill="#E94E1B"/>
<path d="M1237.6 146.018H1164.8L1201.2 109.518L1237.6 146.018Z" fill="#E8B100"/>
<path d="M946.4 219.018H873.6V292.018H946.4V219.018Z" fill="#E94E1B"/>
<path d="M873.6 219.018H946.4C926.296 238.5 893.705 238.5 873.6 219.018Z" fill="#BE1622"/>
<path d="M873.6 233.629H946.4C926.296 253.111 893.705 253.111 873.6 233.629Z" fill="#E8B100"/>
<path d="M873.6 248.241H946.4C926.296 267.723 893.705 267.723 873.6 248.241Z" fill="#BE1622"/>
<path d="M873.6 262.853H946.4C926.296 282.335 893.705 282.335 873.6 262.853Z" fill="#E8B100"/>
<path d="M873.6 277.464H946.4C926.296 296.946 893.705 296.946 873.6 277.464Z" fill="#BE1622"/>
<path d="M1092 292.018V256.3H1129.18V219.018H1164.8V292.018H1092Z" fill="#E8B100"/>
<path d="M1109.68 274.293H1147.12V236.748H1109.68V274.293Z" fill="#232536"/>
<path d="M1128.4 274.287H1147.12V255.517H1128.4V274.287Z" fill="#E94E1B"/>
<path d="M1092 219.018H1164.8V146.018H1092V219.018Z" fill="#E94E1B"/>
<path d="M1091.74 200.768H1146.6V164.268H1091.74V200.768Z" fill="#E8B100"/>
<path d="M1146.6 200.768C1156.65 200.768 1164.8 192.597 1164.8 182.518C1164.8 172.438 1156.65 164.268 1146.6 164.268C1136.55 164.268 1128.4 172.438 1128.4 182.518C1128.4 192.597 1136.55 200.768 1146.6 200.768Z" fill="#BE1622"/>
<path d="M1134.85 189.704C1138.79 186.133 1139.1 180.033 1135.54 176.078C1131.98 172.123 1125.9 171.812 1121.95 175.383C1118.01 178.954 1117.7 185.055 1121.26 189.009C1124.82 192.964 1130.91 193.275 1134.85 189.704Z" fill="black"/>
<path d="M1019.2 182.372V146.018H1055.59C1055.6 146.263 1055.6 146.508 1055.6 146.753C1055.6 166.434 1039.69 182.383 1020.07 182.383C1019.78 182.383 1019.49 182.383 1019.2 182.372Z" fill="#232536"/>
<path d="M1045.08 218.574V171.971H1091.73C1091.74 172.286 1091.74 172.596 1091.74 172.911C1091.74 198.14 1071.34 218.591 1046.18 218.591C1045.82 218.591 1045.44 218.586 1045.08 218.58V218.574Z" fill="#BE1622"/>
<path d="M946.4 146.018H1019.2V73.0176L946.4 73.0176V146.018Z" fill="#E8B100"/>
<path d="M1019.27 73.164V145.942H946.423C946.4 145.451 946.4 144.961 946.4 144.47C946.4 105.074 978.251 73.1348 1017.54 73.1348C1018.12 73.1348 1018.69 73.1464 1019.27 73.1581V73.164Z" fill="#E94E1B"/>
<path d="M1019.27 90.2978V145.947H963.569C963.552 145.573 963.552 145.2 963.552 144.826C963.552 114.703 987.902 90.2803 1017.95 90.2803C1018.39 90.2803 1018.83 90.2861 1019.27 90.2978Z" fill="#E8B100"/>
<path d="M1019.27 107.777V145.948H981.064C981.053 145.691 981.053 145.434 981.053 145.177C981.053 124.515 997.756 107.766 1018.36 107.766C1018.66 107.766 1018.97 107.771 1019.27 107.777Z" fill="#232536"/>
<path d="M946.4 73.0176L1019.2 73.0176V0.0175781L946.4 0.0175781V73.0176Z" fill="#BE1622"/>
<path d="M947.53 21.5088C975.246 21.5088 997.709 44.0337 997.709 71.8262C997.709 72.235 997.709 72.6438 997.698 73.0526H981.612C981.612 72.7723 981.624 72.492 981.624 72.2117C981.624 53.1499 966.213 37.6973 947.204 37.6973C946.965 37.6973 946.732 37.6973 946.493 37.7089V21.5263C946.843 21.5088 947.186 21.5088 947.53 21.5088Z" fill="#E8B100"/>
<path d="M1018.2 51.4677C990.482 51.4677 968.019 28.9428 968.019 1.15023C968.019 0.741428 968.019 0.332628 968.03 -0.0761719H984.116C984.116 0.204148 984.104 0.484468 984.104 0.764788C984.104 19.8265 999.515 35.2792 1018.52 35.2792C1018.76 35.2792 1019 35.2792 1019.23 35.2675V51.4501C1018.89 51.4677 1018.54 51.4677 1018.2 51.4677Z" fill="#E94E1B"/>
<path d="M1092 219.018H1019.2V292.018H1092V219.018Z" fill="#BE1622"/>
<path d="M1080.13 280.112C1085.74 274.486 1085.74 265.364 1080.13 259.737C1074.52 254.111 1065.42 254.111 1059.81 259.737C1054.2 265.364 1054.2 274.486 1059.81 280.112C1065.42 285.739 1074.52 285.739 1080.13 280.112Z" fill="#232536"/>
<path d="M1049.83 281.456C1056.19 276.7 1057.5 267.673 1052.76 261.294C1048.01 254.915 1039.01 253.6 1032.65 258.357C1026.29 263.113 1024.98 272.14 1029.72 278.519C1034.46 284.897 1043.47 286.213 1049.83 281.456Z" fill="#E8B100"/>
<path d="M1080.13 251.299C1085.74 245.672 1085.74 236.55 1080.13 230.924C1074.52 225.297 1065.42 225.297 1059.81 230.924C1054.2 236.55 1054.2 245.672 1059.81 251.299C1065.42 256.925 1074.52 256.925 1080.13 251.299Z" fill="#E94E1B"/>
<path d="M1049.83 252.645C1056.19 247.888 1057.5 238.862 1052.76 232.483C1048.01 226.104 1039.01 224.789 1032.65 229.545C1026.29 234.301 1024.98 243.328 1029.72 249.707C1034.46 256.086 1043.46 257.401 1049.83 252.645Z" fill="#232536"/>
<path d="M1001.02 292.018H1019.2V273.785H1001.02V292.018Z" fill="#E8B100"/>
<path d="M982.771 273.843H1000.95V255.61H982.771V273.843Z" fill="#232536"/>
<path d="M982.771 237.372H1000.95V219.14H982.771V237.372Z" fill="#232536"/>
<path d="M964.588 255.604H982.771V237.372H964.588V255.604Z" fill="#E8B100"/>
<path d="M1000.96 255.604H1019.14V237.372H1000.96V255.604Z" fill="#E8B100"/>
<path d="M964.588 292.075H982.771V273.843H964.588V292.075Z" fill="#E8B100"/>
<path d="M946.4 237.372H964.583V219.14H946.4V237.372Z" fill="#232536"/>
<path d="M946.4 273.843H964.583V255.61H946.4V273.843Z" fill="#232536"/>
<path d="M1092 0.0175781H1019.2V73.0176H1092V0.0175781Z" fill="#E8B100"/>
<path d="M1033.31 14.1617C1040.63 12.1995 1048.45 12.5674 1055.6 15.2713C1060.29 17.0467 1064.69 19.8265 1068.47 23.6108C1072.25 27.401 1075.02 31.816 1076.79 36.5172C1079.48 43.6829 1079.85 51.526 1077.89 58.8728C1070.57 60.835 1062.75 60.4671 1055.6 57.7632C1050.91 55.9878 1046.51 53.208 1042.73 49.4236C1038.96 45.6335 1036.18 41.2184 1034.41 36.5172C1031.72 29.3516 1031.35 21.5084 1033.31 14.1617Z" fill="#E94E1B"/>
<path d="M1034.41 36.5176C1036.18 41.2188 1038.96 45.6338 1042.73 49.424C1046.51 53.2083 1050.91 55.9881 1055.6 57.7635C1048.45 60.4674 1040.63 60.8353 1033.31 58.8731C1031.35 51.5264 1031.72 43.6833 1034.41 36.5176Z" fill="#232536"/>
<path d="M1055.6 15.2713C1062.75 12.5674 1070.57 12.1995 1077.89 14.1617C1079.85 21.5084 1079.48 29.3516 1076.79 36.5172C1075.02 31.816 1072.25 27.401 1068.47 23.6108C1064.69 19.8265 1060.29 17.0467 1055.6 15.2713Z" fill="#232536"/>
<path d="M1034.41 36.5174C1036.18 31.8162 1038.96 27.4012 1042.73 23.611C1046.51 19.8267 1050.91 17.0468 1055.6 15.2715C1060.29 17.0468 1064.69 19.8267 1068.47 23.611C1072.25 27.4012 1075.02 31.8162 1076.79 36.5174C1075.02 41.2186 1072.25 45.6336 1068.47 49.4238C1064.69 53.2081 1060.29 55.988 1055.6 57.7633C1050.91 55.988 1046.51 53.2081 1042.73 49.4238C1038.96 45.6336 1036.18 41.2186 1034.41 36.5174Z" fill="#BE1622"/>
<path d="M890.035 218.591H929.964V162.498H890.035V218.591Z" fill="black"/>
<path d="M910 190.542C898.981 190.542 890.035 181.572 890.035 170.522V162.498H929.964V170.522C929.964 181.572 921.019 190.542 910 190.542Z" fill="#BE1622"/>
<path d="M1237.6 219.018H1164.8V292.018H1237.6V219.018Z" fill="#E94E1B"/>
<path d="M1201.2 292.018C1221.3 292.018 1237.6 275.676 1237.6 255.518C1237.6 235.359 1221.3 219.018 1201.2 219.018C1181.1 219.018 1164.8 235.359 1164.8 255.518C1164.8 275.676 1181.1 292.018 1201.2 292.018Z" fill="#E8B100"/>
<path d="M1214.08 268.437C1221.2 261.303 1221.2 249.736 1214.08 242.602C1206.97 235.469 1195.43 235.469 1188.32 242.602C1181.2 249.736 1181.2 261.303 1188.32 268.437C1195.43 275.571 1206.97 275.571 1214.08 268.437Z" fill="#BE1622"/>
<path d="M1092 146.018H1164.8V73.0176L1092 73.0176V146.018Z" fill="#E8B100"/>
<path d="M1092 139.138V146.018C1112.08 146.018 1128.4 129.648 1128.4 109.518C1128.4 89.3871 1112.08 73.0176 1092 73.0176V79.8971C1108.29 79.8971 1121.54 93.1831 1121.54 109.518C1121.54 125.852 1108.29 139.138 1092 139.138Z" fill="black"/>
<path d="M1092 125.777V132.656C1104.73 132.656 1115.07 122.278 1115.07 109.518C1115.07 96.7576 1104.73 86.3799 1092 86.3799V93.2594C1100.94 93.2594 1108.21 100.554 1108.21 109.518C1108.21 118.482 1100.94 125.777 1092 125.777Z" fill="black"/>
<path d="M1092 113.062V119.942C1097.73 119.942 1102.39 115.264 1102.39 109.523C1102.39 103.782 1097.72 99.1045 1092 99.1045V105.984C1093.95 105.984 1095.54 107.572 1095.54 109.529C1095.54 111.485 1093.95 113.074 1092 113.074V113.062Z" fill="black"/>
<path d="M1164.8 146.018V73.0176C1144.7 73.0176 1128.4 89.3579 1128.4 109.518C1128.4 129.677 1144.7 146.018 1164.8 146.018Z" fill="#E94E1B"/>
<path d="M1237.6 0.0175781H1164.8V73.0176H1237.6V0.0175781Z" fill="#E94E1B"/>
<path d="M1201.2 0.0175781V73.0176C1221.3 73.0176 1237.6 56.6773 1237.6 36.5176C1237.6 16.3579 1221.3 0.0175781 1201.2 0.0175781Z" fill="#BE1622"/>
<path d="M1201.2 73.0176L1164.8 36.5176L1201.2 0.0175781V73.0176Z" fill="#E8B100"/>
<path d="M946.4 73.0176H873.6V146.018H946.4V73.0176Z" fill="#BE1622"/>
<path d="M910 135.091H884.497V109.517C884.497 95.4022 895.924 83.9441 910 83.9441C924.077 83.9441 935.503 95.4022 935.503 109.517C935.503 123.633 924.077 135.091 910 135.091Z" fill="black"/>
<path d="M918.209 120.399C924.207 115.857 925.398 107.298 920.868 101.283C916.338 95.2679 907.802 94.0742 901.804 98.6168C895.805 103.159 894.615 111.718 899.145 117.733C903.675 123.748 912.21 124.942 918.209 120.399Z" fill="#E94E1B"/>
<path d="M1092 73.0176H1019.2V146.018H1092V73.0176Z" fill="#E94E1B"/>
<path d="M1019.2 109.518H1092C1092 89.3579 1075.7 73.0176 1055.6 73.0176C1035.5 73.0176 1019.2 89.3579 1019.2 109.518Z" fill="#E8B100"/>
<path d="M1055.6 146.018V109.518H1019.2C1019.2 129.677 1035.5 146.018 1055.6 146.018Z" fill="#BE1622"/>
<path d="M1065.84 111.272C1066.8 105.601 1063 100.216 1057.35 99.2459C1051.69 98.2755 1046.32 102.086 1045.35 107.758C1044.39 113.43 1048.19 118.814 1053.84 119.785C1059.5 120.755 1064.87 116.944 1065.84 111.272Z" fill="black"/>
</g>
<g clip-path="url(#clip3_79_1470)">
<rect width="436.8" height="292" transform="translate(1310.4)" fill="black" fill-opacity="0.5"/>
<path d="M1747.2 -0.046875H1310.4V291.953H1747.2V-0.046875Z" fill="#FFF4E7"/>
<path d="M1383.2 0.0175781H1310.4V73.0176H1383.2V0.0175781Z" fill="#E8B100"/>
<path d="M1383.2 73.0176V0.0175781C1363.1 0.0175781 1346.8 16.3579 1346.8 36.5176C1346.8 56.6773 1363.1 73.0176 1383.2 73.0176Z" fill="#E94E1B"/>
<path d="M1310.4 0.0175781V73.0176C1330.5 73.0176 1346.8 56.6773 1346.8 36.5176C1346.8 16.3579 1330.5 0.0175781 1310.4 0.0175781Z" fill="#BE1622"/>
<path d="M1322.05 14.623C1329.84 18.8103 1335.15 27.0506 1335.15 36.5172C1335.15 45.9838 1329.84 54.2299 1322.05 58.4114V14.623Z" fill="black"/>
<path d="M1674.4 292.018H1747.2V219.018H1674.4V292.018Z" fill="#BE1622"/>
<path d="M1710.8 292.018V219.018C1690.7 219.018 1674.4 235.358 1674.4 255.518C1674.4 275.677 1690.7 292.018 1710.8 292.018Z" fill="#232536"/>
<path d="M1747.2 292.018V219.018C1727.1 219.018 1710.8 235.358 1710.8 255.518C1710.8 275.677 1727.1 292.018 1747.2 292.018Z" fill="#E94E1B"/>
<path d="M1674.4 146.018H1638V182.518H1674.4V146.018Z" fill="#232536"/>
<path d="M1638 182.518H1601.6V219.018H1638V182.518Z" fill="#232536"/>
<path d="M1614 182.518C1614 169.226 1624.74 158.451 1638 158.451V182.518H1614Z" fill="#E94E1B"/>
<path d="M1638 206.584V182.518H1662C1662 195.809 1651.26 206.584 1638 206.584Z" fill="#E94E1B"/>
<path d="M1662 182.518H1638V158.451C1651.26 158.451 1662 169.226 1662 182.518Z" fill="#E8B100"/>
<path d="M1614 182.518H1638V206.584C1624.74 206.584 1614 195.809 1614 182.518Z" fill="#E8B100"/>
<path d="M1577.33 0.0175781V36.5176L1601.6 18.2676L1577.33 0.0175781Z" fill="#E8B100"/>
<path d="M1553.07 0.0175781V36.5176L1577.33 18.2676L1553.07 0.0175781Z" fill="#E8B100"/>
<path d="M1528.8 0.0175781V36.5176L1553.07 18.2676L1528.8 0.0175781Z" fill="#BE1622"/>
<path d="M1553.07 73.0176V36.5176L1528.8 54.7676L1553.07 73.0176Z" fill="#E94E1B"/>
<path d="M1577.33 73.0176V36.5176L1553.07 54.7676L1577.33 73.0176Z" fill="#E94E1B"/>
<path d="M1601.6 73.0176V36.5176L1577.33 54.7676L1601.6 73.0176Z" fill="#BE1622"/>
<path d="M1747.2 36.5176L1710.8 0.0175781V36.5176H1747.2Z" fill="#E8B100"/>
<path d="M1729 54.7676L1692.6 18.2676V54.7676H1729Z" fill="#E94E1B"/>
<path d="M1710.8 73.0176L1674.4 36.5176V73.0176H1710.8Z" fill="#BE1622"/>
<path d="M1456 146.018H1383.2V219.018H1456V146.018Z" fill="#BE1622"/>
<path d="M1383.2 182.518L1419.6 219.018V182.518H1383.2Z" fill="#E8B100"/>
<path d="M1401.4 164.268L1437.8 200.768V164.268H1401.4Z" fill="#E94E1B"/>
<path d="M1419.6 146.018L1456 182.518V146.018H1419.6Z" fill="#E94E1B"/>
<path d="M1674.4 219.018V146.018H1747.2V182.518L1710.8 219.018H1674.4Z" fill="#E8B100"/>
<path d="M1710.8 182.518L1747.2 146.018H1710.8V182.518Z" fill="#BE1622"/>
<path d="M1674.4 182.518L1710.8 146.018H1674.4V182.518Z" fill="#BE1622"/>
<path d="M1710.8 182.518L1674.4 219.018H1710.8V182.518Z" fill="#E94E1B"/>
<path d="M1747.2 73.0176H1674.4V146.018H1747.2V73.0176Z" fill="#E94E1B"/>
<path d="M1692.6 73.0176H1747.2V91.2676L1729 109.518L1692.6 73.0176Z" fill="#E8B100"/>
<path d="M1674.4 73.0176H1747.2L1710.8 109.518L1674.4 73.0176Z" fill="#BE1622"/>
<path d="M1674.4 91.2676V73.0176H1729L1692.6 109.518L1674.4 91.2676Z" fill="#232536"/>
<path d="M1674.4 73.0176H1601.6V146.018H1674.4V73.0176Z" fill="#BE1622"/>
<path d="M1638 128.754C1648.6 128.754 1657.18 120.142 1657.18 109.517C1657.18 98.893 1648.6 90.2803 1638 90.2803C1627.41 90.2803 1618.82 98.893 1618.82 109.517C1618.82 120.142 1627.41 128.754 1638 128.754Z" fill="#E94E1B"/>
<path d="M1674.4 146.018H1601.6L1638 109.518L1674.4 146.018Z" fill="#E8B100"/>
<path d="M1383.2 219.018H1310.4V292.018H1383.2V219.018Z" fill="#E94E1B"/>
<path d="M1310.4 219.018H1383.2C1363.1 238.5 1330.5 238.5 1310.4 219.018Z" fill="#BE1622"/>
<path d="M1310.4 233.629H1383.2C1363.1 253.111 1330.5 253.111 1310.4 233.629Z" fill="#E8B100"/>
<path d="M1310.4 248.241H1383.2C1363.1 267.723 1330.5 267.723 1310.4 248.241Z" fill="#BE1622"/>
<path d="M1310.4 262.853H1383.2C1363.1 282.335 1330.5 282.335 1310.4 262.853Z" fill="#E8B100"/>
<path d="M1310.4 277.464H1383.2C1363.1 296.946 1330.5 296.946 1310.4 277.464Z" fill="#BE1622"/>
<path d="M1528.8 292.018V256.3H1565.98V219.018H1601.6V292.018H1528.8Z" fill="#E8B100"/>
<path d="M1546.48 274.293H1583.92V236.748H1546.48V274.293Z" fill="#232536"/>
<path d="M1565.2 274.287H1583.92V255.517H1565.2V274.287Z" fill="#E94E1B"/>
<path d="M1528.8 219.018H1601.6V146.018H1528.8V219.018Z" fill="#E94E1B"/>
<path d="M1528.54 200.768H1583.4V164.268H1528.54V200.768Z" fill="#E8B100"/>
<path d="M1583.4 200.768C1593.45 200.768 1601.6 192.597 1601.6 182.518C1601.6 172.438 1593.45 164.268 1583.4 164.268C1573.35 164.268 1565.2 172.438 1565.2 182.518C1565.2 192.597 1573.35 200.768 1583.4 200.768Z" fill="#BE1622"/>
<path d="M1571.65 189.704C1575.59 186.133 1575.9 180.033 1572.34 176.078C1568.78 172.123 1562.7 171.812 1558.75 175.383C1554.81 178.954 1554.5 185.055 1558.06 189.009C1561.62 192.964 1567.71 193.275 1571.65 189.704Z" fill="black"/>
<path d="M1456 182.372V146.018H1492.39C1492.4 146.263 1492.4 146.508 1492.4 146.753C1492.4 166.434 1476.49 182.383 1456.87 182.383C1456.58 182.383 1456.29 182.383 1456 182.372Z" fill="#232536"/>
<path d="M1481.88 218.574V171.971H1528.53C1528.54 172.286 1528.54 172.596 1528.54 172.911C1528.54 198.14 1508.14 218.591 1482.98 218.591C1482.62 218.591 1482.24 218.586 1481.88 218.58V218.574Z" fill="#BE1622"/>
<path d="M1383.2 146.018H1456V73.0176L1383.2 73.0176V146.018Z" fill="#E8B100"/>
<path d="M1456.07 73.164V145.942H1383.22C1383.2 145.451 1383.2 144.961 1383.2 144.47C1383.2 105.074 1415.05 73.1348 1454.34 73.1348C1454.92 73.1348 1455.49 73.1464 1456.07 73.1581V73.164Z" fill="#E94E1B"/>
<path d="M1456.07 90.2978V145.947H1400.37C1400.35 145.573 1400.35 145.2 1400.35 144.826C1400.35 114.703 1424.7 90.2803 1454.75 90.2803C1455.19 90.2803 1455.63 90.2861 1456.07 90.2978Z" fill="#E8B100"/>
<path d="M1456.07 107.777V145.948H1417.86C1417.85 145.691 1417.85 145.434 1417.85 145.177C1417.85 124.515 1434.56 107.766 1455.16 107.766C1455.46 107.766 1455.77 107.771 1456.07 107.777Z" fill="#232536"/>
<path d="M1383.2 73.0176L1456 73.0176V0.0175781L1383.2 0.0175781V73.0176Z" fill="#BE1622"/>
<path d="M1384.33 21.5088C1412.05 21.5088 1434.51 44.0337 1434.51 71.8262C1434.51 72.235 1434.51 72.6438 1434.5 73.0526H1418.41C1418.41 72.7723 1418.42 72.492 1418.42 72.2117C1418.42 53.1499 1403.01 37.6973 1384 37.6973C1383.76 37.6973 1383.53 37.6973 1383.29 37.7089V21.5263C1383.64 21.5088 1383.99 21.5088 1384.33 21.5088Z" fill="#E8B100"/>
<path d="M1455 51.4677C1427.28 51.4677 1404.82 28.9428 1404.82 1.15023C1404.82 0.741428 1404.82 0.332628 1404.83 -0.0761719H1420.92C1420.92 0.204148 1420.9 0.484468 1420.9 0.764788C1420.9 19.8265 1436.31 35.2792 1455.32 35.2792C1455.56 35.2792 1455.8 35.2792 1456.03 35.2675V51.4501C1455.69 51.4677 1455.34 51.4677 1455 51.4677Z" fill="#E94E1B"/>
<path d="M1528.8 219.018H1456V292.018H1528.8V219.018Z" fill="#BE1622"/>
<path d="M1516.93 280.112C1522.54 274.486 1522.54 265.364 1516.93 259.737C1511.32 254.111 1502.22 254.111 1496.61 259.737C1491 265.364 1491 274.486 1496.61 280.112C1502.22 285.739 1511.32 285.739 1516.93 280.112Z" fill="#232536"/>
<path d="M1486.63 281.456C1492.99 276.7 1494.3 267.673 1489.56 261.294C1484.81 254.915 1475.81 253.6 1469.45 258.357C1463.09 263.113 1461.78 272.14 1466.52 278.519C1471.26 284.897 1480.27 286.213 1486.63 281.456Z" fill="#E8B100"/>
<path d="M1516.93 251.299C1522.54 245.672 1522.54 236.55 1516.93 230.924C1511.32 225.297 1502.22 225.297 1496.61 230.924C1491 236.55 1491 245.672 1496.61 251.299C1502.22 256.925 1511.32 256.925 1516.93 251.299Z" fill="#E94E1B"/>
<path d="M1486.63 252.645C1492.99 247.888 1494.3 238.862 1489.56 232.483C1484.81 226.104 1475.81 224.789 1469.45 229.545C1463.09 234.301 1461.78 243.328 1466.52 249.707C1471.26 256.086 1480.26 257.401 1486.63 252.645Z" fill="#232536"/>
<path d="M1437.82 292.018H1456V273.785H1437.82V292.018Z" fill="#E8B100"/>
<path d="M1419.57 273.843H1437.75V255.61H1419.57V273.843Z" fill="#232536"/>
<path d="M1419.57 237.372H1437.75V219.14H1419.57V237.372Z" fill="#232536"/>
<path d="M1401.39 255.604H1419.57V237.372H1401.39V255.604Z" fill="#E8B100"/>
<path d="M1437.76 255.604H1455.94V237.372H1437.76V255.604Z" fill="#E8B100"/>
<path d="M1401.39 292.075H1419.57V273.843H1401.39V292.075Z" fill="#E8B100"/>
<path d="M1383.2 237.372H1401.38V219.14H1383.2V237.372Z" fill="#232536"/>
<path d="M1383.2 273.843H1401.38V255.61H1383.2V273.843Z" fill="#232536"/>
<path d="M1528.8 0.0175781H1456V73.0176H1528.8V0.0175781Z" fill="#E8B100"/>
<path d="M1470.11 14.1617C1477.43 12.1995 1485.25 12.5674 1492.4 15.2713C1497.09 17.0467 1501.49 19.8265 1505.27 23.6108C1509.04 27.401 1511.82 31.816 1513.59 36.5172C1516.28 43.6829 1516.65 51.526 1514.69 58.8728C1507.37 60.835 1499.55 60.4671 1492.4 57.7632C1487.71 55.9878 1483.31 53.208 1479.53 49.4236C1475.75 45.6335 1472.98 41.2184 1471.21 36.5172C1468.52 29.3516 1468.15 21.5084 1470.11 14.1617Z" fill="#E94E1B"/>
<path d="M1471.21 36.5176C1472.98 41.2188 1475.75 45.6338 1479.53 49.424C1483.31 53.2083 1487.71 55.9881 1492.4 57.7635C1485.25 60.4674 1477.43 60.8353 1470.11 58.8731C1468.15 51.5264 1468.52 43.6833 1471.21 36.5176Z" fill="#232536"/>
<path d="M1492.4 15.2713C1499.55 12.5674 1507.37 12.1995 1514.69 14.1617C1516.65 21.5084 1516.28 29.3516 1513.59 36.5172C1511.82 31.816 1509.04 27.401 1505.27 23.6108C1501.49 19.8265 1497.09 17.0467 1492.4 15.2713Z" fill="#232536"/>
<path d="M1471.21 36.5174C1472.98 31.8162 1475.76 27.4012 1479.53 23.611C1483.31 19.8267 1487.71 17.0468 1492.4 15.2715C1497.09 17.0468 1501.49 19.8267 1505.27 23.611C1509.05 27.4012 1511.82 31.8162 1513.59 36.5174C1511.82 41.2186 1509.05 45.6336 1505.27 49.4238C1501.49 53.2081 1497.09 55.988 1492.4 57.7633C1487.71 55.988 1483.31 53.2081 1479.53 49.4238C1475.76 45.6336 1472.98 41.2186 1471.21 36.5174Z" fill="#BE1622"/>
<path d="M1326.84 218.591H1366.76V162.498H1326.84V218.591Z" fill="black"/>
<path d="M1346.8 190.541C1335.78 190.541 1326.84 181.571 1326.84 170.521V162.497H1366.76V170.521C1366.76 181.571 1357.82 190.541 1346.8 190.541Z" fill="#BE1622"/>
<path d="M1674.4 219.018H1601.6V292.018H1674.4V219.018Z" fill="#E94E1B"/>
<path d="M1638 292.018C1658.1 292.018 1674.4 275.676 1674.4 255.518C1674.4 235.359 1658.1 219.018 1638 219.018C1617.9 219.018 1601.6 235.359 1601.6 255.518C1601.6 275.676 1617.9 292.018 1638 292.018Z" fill="#E8B100"/>
<path d="M1650.88 268.437C1657.99 261.303 1657.99 249.736 1650.88 242.602C1643.77 235.469 1632.23 235.469 1625.12 242.602C1618 249.736 1618 261.303 1625.12 268.437C1632.23 275.571 1643.77 275.571 1650.88 268.437Z" fill="#BE1622"/>
<path d="M1528.8 146.018H1601.6V73.0176L1528.8 73.0176V146.018Z" fill="#E8B100"/>
<path d="M1528.8 139.138V146.018C1548.88 146.018 1565.2 129.648 1565.2 109.518C1565.2 89.3871 1548.88 73.0176 1528.8 73.0176V79.8971C1545.09 79.8971 1558.34 93.1831 1558.34 109.518C1558.34 125.852 1545.09 139.138 1528.8 139.138Z" fill="black"/>
<path d="M1528.8 125.777V132.656C1541.53 132.656 1551.87 122.278 1551.87 109.518C1551.87 96.7576 1541.53 86.3799 1528.8 86.3799V93.2594C1537.74 93.2594 1545.01 100.554 1545.01 109.518C1545.01 118.482 1537.74 125.777 1528.8 125.777Z" fill="black"/>
<path d="M1528.8 113.062V119.942C1534.53 119.942 1539.19 115.264 1539.19 109.523C1539.19 103.782 1534.52 99.1045 1528.8 99.1045V105.984C1530.75 105.984 1532.33 107.572 1532.33 109.529C1532.33 111.485 1530.75 113.074 1528.8 113.074V113.062Z" fill="black"/>
<path d="M1601.6 146.018V73.0176C1581.5 73.0176 1565.2 89.3579 1565.2 109.518C1565.2 129.677 1581.5 146.018 1601.6 146.018Z" fill="#E94E1B"/>
<path d="M1674.4 0.0175781H1601.6V73.0176H1674.4V0.0175781Z" fill="#E94E1B"/>
<path d="M1638 0.0175781V73.0176C1658.1 73.0176 1674.4 56.6773 1674.4 36.5176C1674.4 16.3579 1658.1 0.0175781 1638 0.0175781Z" fill="#BE1622"/>
<path d="M1638 73.0176L1601.6 36.5176L1638 0.0175781V73.0176Z" fill="#E8B100"/>
<path d="M1383.2 73.0176H1310.4V146.018H1383.2V73.0176Z" fill="#BE1622"/>
<path d="M1346.8 135.091H1321.3V109.517C1321.3 95.4022 1332.72 83.9441 1346.8 83.9441C1360.88 83.9441 1372.3 95.4022 1372.3 109.517C1372.3 123.633 1360.88 135.091 1346.8 135.091Z" fill="black"/>
<path d="M1355.01 120.399C1361.01 115.857 1362.2 107.298 1357.67 101.283C1353.14 95.2679 1344.6 94.0742 1338.6 98.6168C1332.6 103.159 1331.41 111.718 1335.94 117.733C1340.47 123.748 1349.01 124.942 1355.01 120.399Z" fill="#E94E1B"/>
<path d="M1528.8 73.0176H1456V146.018H1528.8V73.0176Z" fill="#E94E1B"/>
<path d="M1456 109.518H1528.8C1528.8 89.3579 1512.5 73.0176 1492.4 73.0176C1472.3 73.0176 1456 89.3579 1456 109.518Z" fill="#E8B100"/>
<path d="M1492.4 146.018V109.518H1456C1456 129.677 1472.3 146.018 1492.4 146.018Z" fill="#BE1622"/>
<path d="M1502.64 111.272C1503.6 105.601 1499.8 100.216 1494.15 99.2459C1488.49 98.2755 1483.12 102.086 1482.15 107.758C1481.19 113.43 1484.99 118.814 1490.64 119.785C1496.3 120.755 1501.67 116.944 1502.64 111.272Z" fill="black"/>
</g>
<g clip-path="url(#clip4_79_1470)">
<rect width="436.8" height="292" transform="translate(1747.2)" fill="black" fill-opacity="0.5"/>
<path d="M2184 -0.046875H1747.2V291.953H2184V-0.046875Z" fill="#FFF4E7"/>
<path d="M1820 0.0175781H1747.2V73.0176H1820V0.0175781Z" fill="#E8B100"/>
<path d="M1820 73.0176V0.0175781C1799.9 0.0175781 1783.6 16.3579 1783.6 36.5176C1783.6 56.6773 1799.9 73.0176 1820 73.0176Z" fill="#E94E1B"/>
<path d="M1747.2 0.0175781V73.0176C1767.3 73.0176 1783.6 56.6773 1783.6 36.5176C1783.6 16.3579 1767.3 0.0175781 1747.2 0.0175781Z" fill="#BE1622"/>
<path d="M1758.85 14.623C1766.64 18.8103 1771.95 27.0506 1771.95 36.5172C1771.95 45.9838 1766.64 54.2299 1758.85 58.4114V14.623Z" fill="black"/>
<path d="M1892.8 146.018H1820V219.018H1892.8V146.018Z" fill="#BE1622"/>
<path d="M1820 182.518L1856.4 219.018V182.518H1820Z" fill="#E8B100"/>
<path d="M1838.2 164.268L1874.6 200.768V164.268H1838.2Z" fill="#E94E1B"/>
<path d="M1856.4 146.018L1892.8 182.518V146.018H1856.4Z" fill="#E94E1B"/>
<path d="M1820 219.018H1747.2V292.018H1820V219.018Z" fill="#E94E1B"/>
<path d="M1747.2 219.018H1820C1799.9 238.5 1767.3 238.5 1747.2 219.018Z" fill="#BE1622"/>
<path d="M1747.2 233.629H1820C1799.9 253.111 1767.3 253.111 1747.2 233.629Z" fill="#E8B100"/>
<path d="M1747.2 248.241H1820C1799.9 267.723 1767.3 267.723 1747.2 248.241Z" fill="#BE1622"/>
<path d="M1747.2 262.853H1820C1799.9 282.335 1767.3 282.335 1747.2 262.853Z" fill="#E8B100"/>
<path d="M1747.2 277.464H1820C1799.9 296.946 1767.3 296.946 1747.2 277.464Z" fill="#BE1622"/>
<path d="M1892.8 182.372V146.018H1929.19C1929.2 146.263 1929.2 146.508 1929.2 146.753C1929.2 166.434 1913.29 182.383 1893.67 182.383C1893.38 182.383 1893.09 182.383 1892.8 182.372Z" fill="#232536"/>
<path d="M1820 146.018H1892.8V73.0176L1820 73.0176V146.018Z" fill="#E8B100"/>
<path d="M1892.87 73.164V145.942H1820.02C1820 145.451 1820 144.961 1820 144.47C1820 105.074 1851.85 73.1348 1891.14 73.1348C1891.72 73.1348 1892.29 73.1464 1892.87 73.1581V73.164Z" fill="#E94E1B"/>
<path d="M1892.87 90.2978V145.947H1837.17C1837.15 145.573 1837.15 145.2 1837.15 144.826C1837.15 114.703 1861.5 90.2803 1891.55 90.2803C1891.99 90.2803 1892.43 90.2861 1892.87 90.2978Z" fill="#E8B100"/>
<path d="M1892.87 107.777V145.948H1854.66C1854.65 145.691 1854.65 145.434 1854.65 145.177C1854.65 124.515 1871.36 107.766 1891.96 107.766C1892.26 107.766 1892.57 107.771 1892.87 107.777Z" fill="#232536"/>
<path d="M1820 73.0176L1892.8 73.0176V0.0175781L1820 0.0175781V73.0176Z" fill="#BE1622"/>
<path d="M1821.13 21.5088C1848.85 21.5088 1871.31 44.0337 1871.31 71.8262C1871.31 72.235 1871.31 72.6438 1871.3 73.0526H1855.21C1855.21 72.7723 1855.22 72.492 1855.22 72.2117C1855.22 53.1499 1839.81 37.6973 1820.8 37.6973C1820.57 37.6973 1820.33 37.6973 1820.09 37.7089V21.5263C1820.44 21.5088 1820.79 21.5088 1821.13 21.5088Z" fill="#E8B100"/>
<path d="M1891.8 51.4677C1864.08 51.4677 1841.62 28.9428 1841.62 1.15023C1841.62 0.741428 1841.62 0.332628 1841.63 -0.0761719H1857.72C1857.72 0.204148 1857.7 0.484468 1857.7 0.764788C1857.7 19.8265 1873.11 35.2792 1892.12 35.2792C1892.36 35.2792 1892.6 35.2792 1892.83 35.2675V51.4501C1892.49 51.4677 1892.14 51.4677 1891.8 51.4677Z" fill="#E94E1B"/>
<path d="M1965.6 219.018H1892.8V292.018H1965.6V219.018Z" fill="#BE1622"/>
<path d="M1923.43 281.456C1929.79 276.7 1931.1 267.673 1926.36 261.294C1921.61 254.915 1912.61 253.6 1906.25 258.357C1899.89 263.113 1898.58 272.14 1903.32 278.519C1908.06 284.897 1917.07 286.213 1923.43 281.456Z" fill="#E8B100"/>
<path d="M1923.43 252.645C1929.79 247.888 1931.1 238.862 1926.36 232.483C1921.61 226.104 1912.61 224.789 1906.25 229.545C1899.89 234.301 1898.58 243.328 1903.32 249.707C1908.06 256.086 1917.06 257.401 1923.43 252.645Z" fill="#232536"/>
<path d="M1874.62 292.018H1892.8V273.785H1874.62V292.018Z" fill="#E8B100"/>
<path d="M1856.37 273.843H1874.55V255.61H1856.37V273.843Z" fill="#232536"/>
<path d="M1856.37 237.372H1874.55V219.14H1856.37V237.372Z" fill="#232536"/>
<path d="M1838.19 255.604H1856.37V237.372H1838.19V255.604Z" fill="#E8B100"/>
<path d="M1874.56 255.604H1892.74V237.372H1874.56V255.604Z" fill="#E8B100"/>
<path d="M1838.19 292.075H1856.37V273.843H1838.19V292.075Z" fill="#E8B100"/>
<path d="M1820 237.372H1838.18V219.14H1820V237.372Z" fill="#232536"/>
<path d="M1820 273.843H1838.18V255.61H1820V273.843Z" fill="#232536"/>
<path d="M1965.6 0.0175781H1892.8V73.0176H1965.6V0.0175781Z" fill="#E8B100"/>
<path d="M1906.91 14.1617C1914.23 12.1995 1922.05 12.5674 1929.2 15.2713C1933.89 17.0467 1938.29 19.8265 1942.07 23.6108C1945.85 27.401 1948.62 31.816 1950.39 36.5172C1953.08 43.6829 1953.45 51.526 1951.49 58.8728C1944.17 60.835 1936.35 60.4671 1929.2 57.7632C1924.51 55.9878 1920.11 53.208 1916.33 49.4236C1912.56 45.6335 1909.78 41.2184 1908.01 36.5172C1905.32 29.3516 1904.95 21.5084 1906.91 14.1617Z" fill="#E94E1B"/>
<path d="M1908.01 36.5176C1909.78 41.2188 1912.56 45.6338 1916.33 49.424C1920.11 53.2083 1924.51 55.9881 1929.2 57.7635C1922.05 60.4674 1914.23 60.8353 1906.91 58.8731C1904.95 51.5264 1905.32 43.6833 1908.01 36.5176Z" fill="#232536"/>
<path d="M1908.01 36.5174C1909.78 31.8162 1912.56 27.4012 1916.33 23.611C1920.11 19.8267 1924.51 17.0468 1929.2 15.2715C1933.89 17.0468 1938.29 19.8267 1942.07 23.611C1945.85 27.4012 1948.62 31.8162 1950.39 36.5174C1948.62 41.2186 1945.85 45.6336 1942.07 49.4238C1938.29 53.2081 1933.89 55.988 1929.2 57.7633C1924.51 55.988 1920.11 53.2081 1916.33 49.4238C1912.56 45.6336 1909.78 41.2186 1908.01 36.5174Z" fill="#BE1622"/>
<path d="M1763.64 218.591H1803.56V162.498H1763.64V218.591Z" fill="black"/>
<path d="M1783.6 190.542C1772.58 190.542 1763.64 181.572 1763.64 170.522V162.498H1803.56V170.522C1803.56 181.572 1794.62 190.542 1783.6 190.542Z" fill="#BE1622"/>
<path d="M1820 73.0176H1747.2V146.018H1820V73.0176Z" fill="#BE1622"/>
<path d="M1783.6 135.091H1758.1V109.517C1758.1 95.4022 1769.52 83.9441 1783.6 83.9441C1797.68 83.9441 1809.1 95.4022 1809.1 109.517C1809.1 123.633 1797.68 135.091 1783.6 135.091Z" fill="black"/>
<path d="M1791.81 120.399C1797.81 115.857 1799 107.298 1794.47 101.283C1789.94 95.2679 1781.4 94.0742 1775.4 98.6168C1769.41 103.159 1768.21 111.718 1772.74 117.733C1777.28 123.748 1785.81 124.942 1791.81 120.399Z" fill="#E94E1B"/>
<path d="M1965.6 73.0176H1892.8V146.018H1965.6V73.0176Z" fill="#E94E1B"/>
<path d="M1892.8 109.518H1965.6C1965.6 89.3579 1949.3 73.0176 1929.2 73.0176C1909.1 73.0176 1892.8 89.3579 1892.8 109.518Z" fill="#E8B100"/>
<path d="M1929.2 146.018V109.518H1892.8C1892.8 129.677 1909.1 146.018 1929.2 146.018Z" fill="#BE1622"/>
</g>
<defs>
<clipPath id="clip0_79_1470">
<rect width="436.8" height="292" fill="white"/>
</clipPath>
<clipPath id="clip1_79_1470">
<rect width="436.8" height="292" fill="white" transform="translate(436.8)"/>
</clipPath>
<clipPath id="clip2_79_1470">
<rect width="436.8" height="292" fill="white" transform="translate(873.6)"/>
</clipPath>
<clipPath id="clip3_79_1470">
<rect width="436.8" height="292" fill="white" transform="translate(1310.4)"/>
</clipPath>
<clipPath id="clip4_79_1470">
<rect width="436.8" height="292" fill="white" transform="translate(1747.2)"/>
</clipPath>
</defs>
</svg>
