<svg width="61" height="95" viewBox="0 0 61 95" fill="none" xmlns="http://www.w3.org/2000/svg">
<path d="M58.2197 53.6632L13.5194 92.9571C8.25186 97.5943 2.99828e-06 93.8255 2.99828e-06 86.7877V8.20007C-0.001341 6.625 0.449187 5.08293 1.29764 3.75852C2.14609 2.43412 3.35649 1.38351 4.7839 0.732529C6.21131 0.0815439 7.79522 -0.142228 9.34595 0.0880116C10.8967 0.318251 12.3485 0.99274 13.5275 2.03071L58.2115 41.3245C59.0873 42.0935 59.7893 43.0419 60.2702 44.106C60.7512 45.1701 61 46.3252 61 47.4939C61 48.6626 60.7512 49.8177 60.2702 50.8818C59.7893 51.9459 59.0873 52.8942 58.2115 53.6632H58.2197Z" fill="black"/>
</svg>
